<svg width="30" height="30" fill="none" xmlns="http://www.w3.org/2000/svg"><path d="M27.096 19.065c.05.55-.403 1-.955 1h-4.526c-.552 0-.99-.453-1.096-.995-.489-2.5-2.786-4.41-5.519-4.41s-5.03 1.91-5.519 4.41c-.106.542-.544.994-1.096.994H3.859c-.552 0-1.004-.45-.955-1C3.434 13.1 8.672 8.379 15 8.379S26.565 13.1 27.096 19.065Z" fill="#C4C4C4"/><path d="M20.519 19.07c.106.542.544.994 1.096.994h4.526c.552 0 1.004-.45.955-1C26.566 13.102 21.328 8.379 15 8.379v6.281c2.733 0 5.03 1.91 5.519 4.411Z" fill="#E03"/><path d="M16.315 20.697h-2.023V18.75l2.985-2.094c.809-.536 1.77.39 1.214 1.168l-2.176 2.873ZM15 8.378v6.281c1.163 0 2.226.341 3.136.925l4.654-4.48A12.453 12.453 0 0 0 15 8.379Z" fill="#92001F"/><path d="M15 8.378c-2.731 0-5.21.876-7.233 2.337l4.704 4.529c.759-.39 1.619-.585 2.53-.585.91 0 1.77.195 2.529.585l4.704-4.529A12.277 12.277 0 0 0 15 8.378Z" fill="#828282"/><path d="M16.618 20.064c0 .876-.708 1.558-1.618 1.558-.91 0-1.62-.682-1.62-1.558 0-.877.71-1.558 1.62-1.558.91-.049 1.618.681 1.618 1.558Z" fill="#E03"/></svg>
